<?xml version="1.0" encoding="iso-8859-1"?>
<!-- Generator: Adobe Illustrator 19.0.0, SVG Export Plug-In . SVG Version: 6.00 Build 0)  -->
<svg version="1.1" id="Capa_1" xmlns="http://www.w3.org/2000/svg" xmlns:xlink="http://www.w3.org/1999/xlink" x="0px" y="0px"
	 viewBox="0 0 512 512" style="enable-background:new 0 0 512 512;" xml:space="preserve">
<path style="fill:#F3705A;" d="M256,481.067c0,0,256-149.333,256-317.867C512,90.667,453.333,32,380.8,32
	c-57.6,0-105.6,36.267-123.733,87.467C238.933,68.267,189.867,32,133.333,32C58.667,30.933,0,90.667,0,163.2
	C0,334.933,256,481.067,256,481.067z"/>
<path style="fill:#FFFFFF;" d="M440.533,97.067c18.133,16,25.6,36.267,18.133,44.8c-8.533,8.533-28.8,3.2-46.933-12.8
	c-18.133-16-25.6-36.267-18.133-44.8C402.133,75.733,422.4,81.067,440.533,97.067z"/>
<path style="fill:#415A6B;" d="M93.867,37.333l28.8,74.667l38.4,22.4L108.8,215.467l41.6,41.6L137.6,297.6l40.533,41.6l-28.8-43.733
	l21.333-42.667l-34.133-40.533l57.6-85.333l-45.867-35.2l-13.867-60.8c-1.067,0-1.067,0-2.133,0
	C118.4,30.933,105.6,33.067,93.867,37.333z"/>
<g>
</g>
<g>
</g>
<g>
</g>
<g>
</g>
<g>
</g>
<g>
</g>
<g>
</g>
<g>
</g>
<g>
</g>
<g>
</g>
<g>
</g>
<g>
</g>
<g>
</g>
<g>
</g>
<g>
</g>
</svg>
